# xmcd
#
# Track frame offsets:
#	150
#	25805
#	54255
#
# Disc length: 1063 seconds
#
# Revision: 1
# Processed by: cddbd v1.5.1PL0 Copyright (c) Steve Scherf et al.
# Submitted via: CDex 1.50Beta5
#
DISCID=19042503
DTITLE=織田裕二 - Kodo-鼓動-
DYEAR=1992
DGENRE=Pop
TTITLE0=Kodo-鼓動-
TTITLE1=光の一粒
TTITLE2=Kodo-鼓動-(オリジナルカラオケ)
EXTD=
EXTT0=
EXTT1=
EXTT2=
PLAYORDER=
